<mxfile host="app.diagrams.net" modified="2024-04-28T07:32:23.106Z" agent="Mozilla/5.0 (Windows NT 10.0; Win64; x64) AppleWebKit/537.36 (KHTML, like Gecko) Chrome/124.0.0.0 Safari/537.36 Edg/124.0.0.0" etag="3SlFDk1SNzjsJAjgLnN5" version="24.3.1" type="github">
  <diagram name="Page-1" id="arwiRg_OSkmTxciDIUxF">
    <mxGraphModel dx="2738" dy="3161" grid="1" gridSize="10" guides="1" tooltips="1" connect="1" arrows="1" fold="1" page="1" pageScale="1" pageWidth="850" pageHeight="1100" math="0" shadow="0">
      <root>
        <mxCell id="0" />
        <mxCell id="1" parent="0" />
        <mxCell id="LyGaWGMWj2QUgu-wXZLi-1" value="Withdraw money" style="swimlane;childLayout=stackLayout;resizeParent=1;resizeParentMax=0;startSize=20;horizontal=0;horizontalStack=1;" vertex="1" parent="1">
          <mxGeometry x="150" y="-1420" width="735" height="1030" as="geometry" />
        </mxCell>
        <mxCell id="LyGaWGMWj2QUgu-wXZLi-66" value="Lane 3" style="swimlane;startSize=20;" vertex="1" parent="LyGaWGMWj2QUgu-wXZLi-1">
          <mxGeometry x="20" width="160" height="1030" as="geometry" />
        </mxCell>
        <mxCell id="LyGaWGMWj2QUgu-wXZLi-53" value="Dispense Cash" style="rounded=1;whiteSpace=wrap;html=1;arcSize=40;fontColor=#000000;fillColor=#ffffc0;strokeColor=#ff0000;" vertex="1" parent="LyGaWGMWj2QUgu-wXZLi-66">
          <mxGeometry x="20" y="480" width="120" height="40" as="geometry" />
        </mxCell>
        <mxCell id="LyGaWGMWj2QUgu-wXZLi-72" value="" style="edgeStyle=orthogonalEdgeStyle;html=1;verticalAlign=bottom;endArrow=open;endSize=8;strokeColor=#ff0000;rounded=0;" edge="1" parent="LyGaWGMWj2QUgu-wXZLi-66">
          <mxGeometry relative="1" as="geometry">
            <mxPoint x="250" y="600" as="targetPoint" />
            <mxPoint x="79.58000000000001" y="520.0000000000002" as="sourcePoint" />
            <Array as="points">
              <mxPoint x="80" y="600" />
            </Array>
          </mxGeometry>
        </mxCell>
        <mxCell id="LyGaWGMWj2QUgu-wXZLi-3" value="Banking system" style="swimlane;startSize=20;" vertex="1" parent="LyGaWGMWj2QUgu-wXZLi-1">
          <mxGeometry x="180" width="295" height="1030" as="geometry" />
        </mxCell>
        <mxCell id="LyGaWGMWj2QUgu-wXZLi-50" value="It is more than account balance?" style="rhombus;whiteSpace=wrap;html=1;fontColor=#000000;fillColor=#ffffc0;strokeColor=#ff0000;" vertex="1" parent="LyGaWGMWj2QUgu-wXZLi-3">
          <mxGeometry x="170" y="330" width="107.5" height="120" as="geometry" />
        </mxCell>
        <mxCell id="LyGaWGMWj2QUgu-wXZLi-51" value="Display Error" style="rounded=1;whiteSpace=wrap;html=1;arcSize=40;fontColor=#000000;fillColor=#ffffc0;strokeColor=#ff0000;" vertex="1" parent="LyGaWGMWj2QUgu-wXZLi-3">
          <mxGeometry x="171.25" y="495" width="105" height="40" as="geometry" />
        </mxCell>
        <mxCell id="LyGaWGMWj2QUgu-wXZLi-52" value="" style="edgeStyle=orthogonalEdgeStyle;html=1;align=left;verticalAlign=bottom;endArrow=open;endSize=8;strokeColor=#ff0000;rounded=0;exitX=0.5;exitY=1;exitDx=0;exitDy=0;entryX=0.5;entryY=0;entryDx=0;entryDy=0;" edge="1" parent="LyGaWGMWj2QUgu-wXZLi-3">
          <mxGeometry x="-1" relative="1" as="geometry">
            <mxPoint x="223.40999999999954" y="495" as="targetPoint" />
            <mxPoint x="223.40999999999954" y="450" as="sourcePoint" />
            <Array as="points" />
          </mxGeometry>
        </mxCell>
        <mxCell id="LyGaWGMWj2QUgu-wXZLi-58" value="no" style="edgeLabel;html=1;align=center;verticalAlign=middle;resizable=0;points=[];" vertex="1" connectable="0" parent="LyGaWGMWj2QUgu-wXZLi-52">
          <mxGeometry x="-0.2606" y="-1" relative="1" as="geometry">
            <mxPoint x="8" y="-7" as="offset" />
          </mxGeometry>
        </mxCell>
        <mxCell id="LyGaWGMWj2QUgu-wXZLi-54" value="yes" style="edgeStyle=orthogonalEdgeStyle;html=1;align=left;verticalAlign=top;endArrow=open;endSize=8;strokeColor=#ff0000;rounded=0;exitX=0;exitY=0.5;exitDx=0;exitDy=0;entryX=0.5;entryY=0;entryDx=0;entryDy=0;" edge="1" parent="LyGaWGMWj2QUgu-wXZLi-3" source="LyGaWGMWj2QUgu-wXZLi-50" target="LyGaWGMWj2QUgu-wXZLi-56">
          <mxGeometry x="-0.4283" relative="1" as="geometry">
            <mxPoint x="50" y="410" as="targetPoint" />
            <Array as="points">
              <mxPoint x="70" y="390" />
            </Array>
            <mxPoint as="offset" />
          </mxGeometry>
        </mxCell>
        <mxCell id="LyGaWGMWj2QUgu-wXZLi-56" value="" style="shape=collate;html=1;" vertex="1" parent="LyGaWGMWj2QUgu-wXZLi-3">
          <mxGeometry x="50" y="430" width="40" height="30" as="geometry" />
        </mxCell>
        <mxCell id="LyGaWGMWj2QUgu-wXZLi-69" value="Update Balance" style="rounded=1;whiteSpace=wrap;html=1;arcSize=40;fontColor=#000000;fillColor=#ffffc0;strokeColor=#ff0000;" vertex="1" parent="LyGaWGMWj2QUgu-wXZLi-3">
          <mxGeometry x="90" y="580" width="120" height="40" as="geometry" />
        </mxCell>
        <mxCell id="LyGaWGMWj2QUgu-wXZLi-57" value="Print Reciept" style="rounded=1;whiteSpace=wrap;html=1;arcSize=40;fontColor=#000000;fillColor=#ffffc0;strokeColor=#ff0000;" vertex="1" parent="LyGaWGMWj2QUgu-wXZLi-3">
          <mxGeometry x="87.5" y="710" width="120" height="40" as="geometry" />
        </mxCell>
        <mxCell id="LyGaWGMWj2QUgu-wXZLi-4" value="Customer" style="swimlane;startSize=20;" vertex="1" parent="LyGaWGMWj2QUgu-wXZLi-1">
          <mxGeometry x="475" width="260" height="1030" as="geometry" />
        </mxCell>
        <mxCell id="LyGaWGMWj2QUgu-wXZLi-5" value="" style="ellipse;html=1;shape=endState;fillColor=#000000;strokeColor=#ff0000;" vertex="1" parent="LyGaWGMWj2QUgu-wXZLi-4">
          <mxGeometry x="110" y="790" width="30" height="30" as="geometry" />
        </mxCell>
        <mxCell id="LyGaWGMWj2QUgu-wXZLi-39" value="" style="edgeStyle=orthogonalEdgeStyle;html=1;verticalAlign=bottom;endArrow=open;endSize=8;strokeColor=#ff0000;rounded=0;entryX=0.5;entryY=0;entryDx=0;entryDy=0;exitX=0;exitY=0.5;exitDx=0;exitDy=0;" edge="1" parent="LyGaWGMWj2QUgu-wXZLi-4" source="LyGaWGMWj2QUgu-wXZLi-47" target="LyGaWGMWj2QUgu-wXZLi-42">
          <mxGeometry relative="1" as="geometry">
            <mxPoint x="157.5" y="276" as="targetPoint" />
            <mxPoint x="175" y="220" as="sourcePoint" />
            <Array as="points">
              <mxPoint x="58" y="220" />
              <mxPoint x="-15" y="220" />
              <mxPoint x="-15" y="150" />
              <mxPoint x="-178" y="150" />
            </Array>
          </mxGeometry>
        </mxCell>
        <mxCell id="LyGaWGMWj2QUgu-wXZLi-40" value="no" style="edgeStyle=orthogonalEdgeStyle;html=1;align=left;verticalAlign=bottom;endArrow=open;endSize=8;strokeColor=#ff0000;rounded=0;entryX=1;entryY=0.5;entryDx=0;entryDy=0;exitX=1;exitY=0.5;exitDx=0;exitDy=0;" edge="1" parent="LyGaWGMWj2QUgu-wXZLi-4" source="LyGaWGMWj2QUgu-wXZLi-42" target="LyGaWGMWj2QUgu-wXZLi-47">
          <mxGeometry x="-1" relative="1" as="geometry">
            <mxPoint x="302.5" y="216" as="targetPoint" />
            <Array as="points">
              <mxPoint x="-55" y="206" />
              <mxPoint x="-55" y="256" />
              <mxPoint x="195" y="256" />
              <mxPoint x="195" y="216" />
            </Array>
          </mxGeometry>
        </mxCell>
        <mxCell id="LyGaWGMWj2QUgu-wXZLi-41" value="yes" style="edgeStyle=orthogonalEdgeStyle;html=1;align=left;verticalAlign=top;endArrow=open;endSize=8;strokeColor=#ff0000;rounded=0;exitX=0.5;exitY=1;exitDx=0;exitDy=0;entryX=0;entryY=0.5;entryDx=0;entryDy=0;" edge="1" parent="LyGaWGMWj2QUgu-wXZLi-4" source="LyGaWGMWj2QUgu-wXZLi-42">
          <mxGeometry x="-1" relative="1" as="geometry">
            <mxPoint x="58" y="310" as="targetPoint" />
            <mxPoint x="-57.92149425287346" y="286.00425287356325" as="sourcePoint" />
            <Array as="points">
              <mxPoint x="-175" y="236" />
              <mxPoint x="-175" y="310" />
            </Array>
          </mxGeometry>
        </mxCell>
        <mxCell id="LyGaWGMWj2QUgu-wXZLi-42" value="Is the PIN correct?&amp;nbsp;" style="rhombus;whiteSpace=wrap;html=1;fontColor=#000000;fillColor=#ffffc0;strokeColor=#ff0000;" vertex="1" parent="LyGaWGMWj2QUgu-wXZLi-4">
          <mxGeometry x="-225" y="176" width="95" height="60" as="geometry" />
        </mxCell>
        <mxCell id="LyGaWGMWj2QUgu-wXZLi-43" value="" style="ellipse;html=1;shape=startState;fillColor=#000000;strokeColor=#ff0000;" vertex="1" parent="LyGaWGMWj2QUgu-wXZLi-4">
          <mxGeometry x="102.5" y="30" width="30" height="30" as="geometry" />
        </mxCell>
        <mxCell id="LyGaWGMWj2QUgu-wXZLi-44" value="" style="edgeStyle=orthogonalEdgeStyle;html=1;verticalAlign=bottom;endArrow=open;endSize=8;strokeColor=#ff0000;rounded=0;" edge="1" parent="LyGaWGMWj2QUgu-wXZLi-4" source="LyGaWGMWj2QUgu-wXZLi-43">
          <mxGeometry relative="1" as="geometry">
            <mxPoint x="117.5" y="120" as="targetPoint" />
          </mxGeometry>
        </mxCell>
        <mxCell id="LyGaWGMWj2QUgu-wXZLi-45" value="Insert ATM card" style="rounded=1;whiteSpace=wrap;html=1;arcSize=40;fontColor=#000000;fillColor=#ffffc0;strokeColor=#ff0000;" vertex="1" parent="LyGaWGMWj2QUgu-wXZLi-4">
          <mxGeometry x="57.5" y="120" width="120" height="40" as="geometry" />
        </mxCell>
        <mxCell id="LyGaWGMWj2QUgu-wXZLi-46" value="" style="edgeStyle=orthogonalEdgeStyle;html=1;verticalAlign=bottom;endArrow=open;endSize=8;strokeColor=#ff0000;rounded=0;entryX=0.5;entryY=0;entryDx=0;entryDy=0;" edge="1" parent="LyGaWGMWj2QUgu-wXZLi-4" source="LyGaWGMWj2QUgu-wXZLi-45" target="LyGaWGMWj2QUgu-wXZLi-47">
          <mxGeometry relative="1" as="geometry">
            <mxPoint x="117.5" y="220" as="targetPoint" />
          </mxGeometry>
        </mxCell>
        <mxCell id="LyGaWGMWj2QUgu-wXZLi-47" value="Enter PIN" style="rounded=1;whiteSpace=wrap;html=1;arcSize=40;fontColor=#000000;fillColor=#ffffc0;strokeColor=#ff0000;" vertex="1" parent="LyGaWGMWj2QUgu-wXZLi-4">
          <mxGeometry x="57.5" y="196" width="120" height="40" as="geometry" />
        </mxCell>
        <mxCell id="LyGaWGMWj2QUgu-wXZLi-48" value="Enter the desired amount of cash" style="rounded=1;whiteSpace=wrap;html=1;arcSize=40;fontColor=#000000;fillColor=#ffffc0;strokeColor=#ff0000;" vertex="1" parent="LyGaWGMWj2QUgu-wXZLi-4">
          <mxGeometry x="60" y="290" width="120" height="40" as="geometry" />
        </mxCell>
        <mxCell id="LyGaWGMWj2QUgu-wXZLi-73" value="Need Receipt?" style="rhombus;whiteSpace=wrap;html=1;fontColor=#000000;fillColor=#ffffc0;strokeColor=#ff0000;" vertex="1" parent="LyGaWGMWj2QUgu-wXZLi-4">
          <mxGeometry x="40" y="560" width="95" height="80" as="geometry" />
        </mxCell>
        <mxCell id="LyGaWGMWj2QUgu-wXZLi-74" value="no" style="edgeStyle=orthogonalEdgeStyle;html=1;align=left;verticalAlign=bottom;endArrow=open;endSize=8;strokeColor=#ff0000;rounded=0;entryX=1;entryY=0.5;entryDx=0;entryDy=0;exitX=1;exitY=0.5;exitDx=0;exitDy=0;" edge="1" source="LyGaWGMWj2QUgu-wXZLi-73" parent="LyGaWGMWj2QUgu-wXZLi-4" target="LyGaWGMWj2QUgu-wXZLi-5">
          <mxGeometry x="-1" relative="1" as="geometry">
            <mxPoint x="190" y="810" as="targetPoint" />
            <mxPoint x="140.00000000000045" y="420" as="sourcePoint" />
            <Array as="points">
              <mxPoint x="180" y="600" />
              <mxPoint x="180" y="805" />
            </Array>
          </mxGeometry>
        </mxCell>
        <mxCell id="LyGaWGMWj2QUgu-wXZLi-62" value="" style="edgeStyle=orthogonalEdgeStyle;html=1;verticalAlign=bottom;endArrow=open;endSize=8;strokeColor=#ff0000;rounded=0;exitX=1;exitY=0.5;exitDx=0;exitDy=0;entryX=1;entryY=0.5;entryDx=0;entryDy=0;" edge="1" source="LyGaWGMWj2QUgu-wXZLi-51" parent="LyGaWGMWj2QUgu-wXZLi-1" target="LyGaWGMWj2QUgu-wXZLi-48">
          <mxGeometry relative="1" as="geometry">
            <mxPoint x="520" y="310" as="targetPoint" />
            <mxPoint x="371.98" y="520" as="sourcePoint" />
            <Array as="points">
              <mxPoint x="680" y="515" />
              <mxPoint x="680" y="310" />
            </Array>
          </mxGeometry>
        </mxCell>
        <mxCell id="LyGaWGMWj2QUgu-wXZLi-59" style="edgeStyle=orthogonalEdgeStyle;rounded=0;orthogonalLoop=1;jettySize=auto;html=1;exitX=0.5;exitY=1;exitDx=0;exitDy=0;entryX=1;entryY=0.5;entryDx=0;entryDy=0;" edge="1" parent="LyGaWGMWj2QUgu-wXZLi-1" source="LyGaWGMWj2QUgu-wXZLi-56" target="LyGaWGMWj2QUgu-wXZLi-53">
          <mxGeometry relative="1" as="geometry">
            <mxPoint x="250" y="520" as="targetPoint" />
          </mxGeometry>
        </mxCell>
        <mxCell id="LyGaWGMWj2QUgu-wXZLi-49" value="" style="edgeStyle=orthogonalEdgeStyle;html=1;verticalAlign=bottom;endArrow=open;endSize=8;strokeColor=#ff0000;rounded=0;exitX=0.5;exitY=1;exitDx=0;exitDy=0;entryX=1;entryY=0.5;entryDx=0;entryDy=0;" edge="1" source="LyGaWGMWj2QUgu-wXZLi-48" parent="LyGaWGMWj2QUgu-wXZLi-1" target="LyGaWGMWj2QUgu-wXZLi-50">
          <mxGeometry relative="1" as="geometry">
            <mxPoint x="460" y="390" as="targetPoint" />
            <mxPoint x="590" y="350" as="sourcePoint" />
            <Array as="points">
              <mxPoint x="595" y="390" />
            </Array>
          </mxGeometry>
        </mxCell>
        <mxCell id="LyGaWGMWj2QUgu-wXZLi-70" value="" style="edgeStyle=orthogonalEdgeStyle;html=1;verticalAlign=bottom;endArrow=open;endSize=8;strokeColor=#ff0000;rounded=0;exitX=1;exitY=0.5;exitDx=0;exitDy=0;entryX=0;entryY=0.5;entryDx=0;entryDy=0;" edge="1" source="LyGaWGMWj2QUgu-wXZLi-69" parent="LyGaWGMWj2QUgu-wXZLi-1" target="LyGaWGMWj2QUgu-wXZLi-73">
          <mxGeometry relative="1" as="geometry">
            <mxPoint x="330" y="740" as="targetPoint" />
            <mxPoint x="420" y="660" as="sourcePoint" />
            <Array as="points">
              <mxPoint x="460" y="600" />
              <mxPoint x="460" y="600" />
            </Array>
          </mxGeometry>
        </mxCell>
        <mxCell id="LyGaWGMWj2QUgu-wXZLi-75" value="yes" style="edgeStyle=orthogonalEdgeStyle;html=1;align=left;verticalAlign=top;endArrow=open;endSize=8;strokeColor=#ff0000;rounded=0;entryX=1;entryY=0.5;entryDx=0;entryDy=0;" edge="1" source="LyGaWGMWj2QUgu-wXZLi-73" parent="LyGaWGMWj2QUgu-wXZLi-1" target="LyGaWGMWj2QUgu-wXZLi-57">
          <mxGeometry x="-1" relative="1" as="geometry">
            <mxPoint x="570" y="730" as="targetPoint" />
            <Array as="points">
              <mxPoint x="563" y="730" />
            </Array>
          </mxGeometry>
        </mxCell>
        <mxCell id="LyGaWGMWj2QUgu-wXZLi-77" value="" style="edgeStyle=orthogonalEdgeStyle;html=1;verticalAlign=bottom;endArrow=open;endSize=8;strokeColor=#ff0000;rounded=0;exitX=0.5;exitY=1;exitDx=0;exitDy=0;entryX=0;entryY=0.5;entryDx=0;entryDy=0;" edge="1" source="LyGaWGMWj2QUgu-wXZLi-57" parent="LyGaWGMWj2QUgu-wXZLi-1" target="LyGaWGMWj2QUgu-wXZLi-5">
          <mxGeometry relative="1" as="geometry">
            <mxPoint x="329.58" y="1050" as="targetPoint" />
            <mxPoint x="329.58" y="760" as="sourcePoint" />
            <Array as="points">
              <mxPoint x="328" y="810" />
              <mxPoint x="580" y="810" />
              <mxPoint x="580" y="805" />
            </Array>
          </mxGeometry>
        </mxCell>
        <mxCell id="LyGaWGMWj2QUgu-wXZLi-8" value="Transaction" style="swimlane;childLayout=stackLayout;resizeParent=1;resizeParentMax=0;startSize=20;horizontal=0;horizontalStack=1;" vertex="1" parent="1">
          <mxGeometry x="140" y="-260" width="510" height="820" as="geometry" />
        </mxCell>
        <mxCell id="LyGaWGMWj2QUgu-wXZLi-9" value="" style="edgeStyle=orthogonalEdgeStyle;html=1;verticalAlign=bottom;endArrow=open;endSize=8;strokeColor=#ff0000;rounded=0;entryX=0.5;entryY=0;entryDx=0;entryDy=0;exitX=0;exitY=0.5;exitDx=0;exitDy=0;" edge="1" parent="LyGaWGMWj2QUgu-wXZLi-8" source="LyGaWGMWj2QUgu-wXZLi-29" target="LyGaWGMWj2QUgu-wXZLi-13">
          <mxGeometry relative="1" as="geometry">
            <mxPoint x="432.5" y="286" as="targetPoint" />
            <mxPoint x="450" y="230" as="sourcePoint" />
            <Array as="points">
              <mxPoint x="333" y="230" />
              <mxPoint x="260" y="230" />
              <mxPoint x="260" y="160" />
              <mxPoint x="97" y="160" />
            </Array>
          </mxGeometry>
        </mxCell>
        <mxCell id="LyGaWGMWj2QUgu-wXZLi-10" value="no" style="edgeStyle=orthogonalEdgeStyle;html=1;align=left;verticalAlign=bottom;endArrow=open;endSize=8;strokeColor=#ff0000;rounded=0;entryX=1;entryY=0.5;entryDx=0;entryDy=0;exitX=1;exitY=0.5;exitDx=0;exitDy=0;" edge="1" parent="LyGaWGMWj2QUgu-wXZLi-8" source="LyGaWGMWj2QUgu-wXZLi-13" target="LyGaWGMWj2QUgu-wXZLi-29">
          <mxGeometry x="-1" relative="1" as="geometry">
            <mxPoint x="577.5" y="226" as="targetPoint" />
            <Array as="points">
              <mxPoint x="220" y="216" />
              <mxPoint x="220" y="266" />
              <mxPoint x="470" y="266" />
              <mxPoint x="470" y="226" />
            </Array>
          </mxGeometry>
        </mxCell>
        <mxCell id="LyGaWGMWj2QUgu-wXZLi-11" value="yes" style="edgeStyle=orthogonalEdgeStyle;html=1;align=left;verticalAlign=top;endArrow=open;endSize=8;strokeColor=#ff0000;rounded=0;exitX=0.5;exitY=1;exitDx=0;exitDy=0;entryX=0;entryY=0.5;entryDx=0;entryDy=0;" edge="1" parent="LyGaWGMWj2QUgu-wXZLi-8" source="LyGaWGMWj2QUgu-wXZLi-13" target="LyGaWGMWj2QUgu-wXZLi-30">
          <mxGeometry x="-1" relative="1" as="geometry">
            <mxPoint x="360" y="320" as="targetPoint" />
            <mxPoint x="217.07850574712654" y="296.00425287356325" as="sourcePoint" />
            <Array as="points">
              <mxPoint x="100" y="246" />
              <mxPoint x="100" y="320" />
            </Array>
          </mxGeometry>
        </mxCell>
        <mxCell id="LyGaWGMWj2QUgu-wXZLi-12" value="Banking System" style="swimlane;startSize=20;" vertex="1" parent="LyGaWGMWj2QUgu-wXZLi-8">
          <mxGeometry x="20" width="270" height="820" as="geometry" />
        </mxCell>
        <mxCell id="LyGaWGMWj2QUgu-wXZLi-13" value="Is the PIN correct?&amp;nbsp;" style="rhombus;whiteSpace=wrap;html=1;fontColor=#000000;fillColor=#ffffc0;strokeColor=#ff0000;" vertex="1" parent="LyGaWGMWj2QUgu-wXZLi-12">
          <mxGeometry x="30" y="186" width="95" height="60" as="geometry" />
        </mxCell>
        <mxCell id="LyGaWGMWj2QUgu-wXZLi-14" value="Are the sufficient funds?" style="rhombus;whiteSpace=wrap;html=1;fontColor=#000000;fillColor=#ffffc0;strokeColor=#ff0000;" vertex="1" parent="LyGaWGMWj2QUgu-wXZLi-12">
          <mxGeometry x="150" y="360" width="80" height="80" as="geometry" />
        </mxCell>
        <mxCell id="LyGaWGMWj2QUgu-wXZLi-15" value="Display Error" style="rounded=1;whiteSpace=wrap;html=1;arcSize=40;fontColor=#000000;fillColor=#ffffc0;strokeColor=#ff0000;" vertex="1" parent="LyGaWGMWj2QUgu-wXZLi-12">
          <mxGeometry x="10" y="380" width="105" height="40" as="geometry" />
        </mxCell>
        <mxCell id="LyGaWGMWj2QUgu-wXZLi-16" value="no" style="edgeStyle=orthogonalEdgeStyle;html=1;align=left;verticalAlign=bottom;endArrow=open;endSize=8;strokeColor=#ff0000;rounded=0;exitX=0;exitY=0.5;exitDx=0;exitDy=0;entryX=1;entryY=0.5;entryDx=0;entryDy=0;" edge="1" parent="LyGaWGMWj2QUgu-wXZLi-12" source="LyGaWGMWj2QUgu-wXZLi-14" target="LyGaWGMWj2QUgu-wXZLi-15">
          <mxGeometry x="-1" relative="1" as="geometry">
            <mxPoint x="40" y="430" as="targetPoint" />
            <mxPoint x="140" y="440" as="sourcePoint" />
            <Array as="points">
              <mxPoint x="150" y="400" />
              <mxPoint x="150" y="400" />
            </Array>
          </mxGeometry>
        </mxCell>
        <mxCell id="LyGaWGMWj2QUgu-wXZLi-17" value="transfer money" style="rounded=1;whiteSpace=wrap;html=1;arcSize=40;fontColor=#000000;fillColor=#ffffc0;strokeColor=#ff0000;" vertex="1" parent="LyGaWGMWj2QUgu-wXZLi-12">
          <mxGeometry x="130" y="580" width="120" height="40" as="geometry" />
        </mxCell>
        <mxCell id="LyGaWGMWj2QUgu-wXZLi-18" value="yes" style="edgeStyle=orthogonalEdgeStyle;html=1;align=left;verticalAlign=top;endArrow=open;endSize=8;strokeColor=#ff0000;rounded=0;entryX=0.5;entryY=0;entryDx=0;entryDy=0;" edge="1" parent="LyGaWGMWj2QUgu-wXZLi-12" source="LyGaWGMWj2QUgu-wXZLi-14" target="LyGaWGMWj2QUgu-wXZLi-21">
          <mxGeometry x="-1" relative="1" as="geometry">
            <mxPoint x="200" y="510" as="targetPoint" />
            <Array as="points">
              <mxPoint x="190" y="520" />
            </Array>
          </mxGeometry>
        </mxCell>
        <mxCell id="LyGaWGMWj2QUgu-wXZLi-19" value="" style="edgeStyle=orthogonalEdgeStyle;html=1;verticalAlign=bottom;endArrow=open;endSize=8;strokeColor=#ff0000;rounded=0;entryX=0;entryY=0.5;entryDx=0;entryDy=0;" edge="1" parent="LyGaWGMWj2QUgu-wXZLi-12" target="LyGaWGMWj2QUgu-wXZLi-33">
          <mxGeometry relative="1" as="geometry">
            <mxPoint x="62.08000000000004" y="869.5" as="targetPoint" />
            <mxPoint x="60" y="420" as="sourcePoint" />
            <Array as="points">
              <mxPoint x="62" y="785" />
            </Array>
          </mxGeometry>
        </mxCell>
        <mxCell id="LyGaWGMWj2QUgu-wXZLi-20" value="" style="edgeStyle=orthogonalEdgeStyle;rounded=0;orthogonalLoop=1;jettySize=auto;html=1;" edge="1" parent="LyGaWGMWj2QUgu-wXZLi-12" source="LyGaWGMWj2QUgu-wXZLi-21" target="LyGaWGMWj2QUgu-wXZLi-17">
          <mxGeometry relative="1" as="geometry" />
        </mxCell>
        <mxCell id="LyGaWGMWj2QUgu-wXZLi-21" value="" style="shape=collate;html=1;" vertex="1" parent="LyGaWGMWj2QUgu-wXZLi-12">
          <mxGeometry x="170" y="520" width="40" height="30" as="geometry" />
        </mxCell>
        <mxCell id="LyGaWGMWj2QUgu-wXZLi-22" value="Print Reciept" style="rounded=1;whiteSpace=wrap;html=1;arcSize=40;fontColor=#000000;fillColor=#ffffc0;strokeColor=#ff0000;" vertex="1" parent="LyGaWGMWj2QUgu-wXZLi-12">
          <mxGeometry x="130" y="650" width="120" height="40" as="geometry" />
        </mxCell>
        <mxCell id="LyGaWGMWj2QUgu-wXZLi-23" value="" style="edgeStyle=orthogonalEdgeStyle;html=1;verticalAlign=bottom;endArrow=open;endSize=8;strokeColor=#ff0000;rounded=0;exitX=0;exitY=0.5;exitDx=0;exitDy=0;" edge="1" parent="LyGaWGMWj2QUgu-wXZLi-8" source="LyGaWGMWj2QUgu-wXZLi-32">
          <mxGeometry relative="1" as="geometry">
            <mxPoint x="250" y="400" as="targetPoint" />
            <mxPoint x="370" y="400" as="sourcePoint" />
            <Array as="points">
              <mxPoint x="320" y="400" />
              <mxPoint x="320" y="400" />
            </Array>
          </mxGeometry>
        </mxCell>
        <mxCell id="LyGaWGMWj2QUgu-wXZLi-24" value="User" style="swimlane;startSize=20;" vertex="1" parent="LyGaWGMWj2QUgu-wXZLi-8">
          <mxGeometry x="290" width="220" height="820" as="geometry" />
        </mxCell>
        <mxCell id="LyGaWGMWj2QUgu-wXZLi-25" value="" style="ellipse;html=1;shape=startState;fillColor=#000000;strokeColor=#ff0000;" vertex="1" parent="LyGaWGMWj2QUgu-wXZLi-24">
          <mxGeometry x="87.5" y="40" width="30" height="30" as="geometry" />
        </mxCell>
        <mxCell id="LyGaWGMWj2QUgu-wXZLi-26" value="" style="edgeStyle=orthogonalEdgeStyle;html=1;verticalAlign=bottom;endArrow=open;endSize=8;strokeColor=#ff0000;rounded=0;" edge="1" parent="LyGaWGMWj2QUgu-wXZLi-24" source="LyGaWGMWj2QUgu-wXZLi-25">
          <mxGeometry relative="1" as="geometry">
            <mxPoint x="102.5" y="130" as="targetPoint" />
          </mxGeometry>
        </mxCell>
        <mxCell id="LyGaWGMWj2QUgu-wXZLi-27" value="Insert ATM card" style="rounded=1;whiteSpace=wrap;html=1;arcSize=40;fontColor=#000000;fillColor=#ffffc0;strokeColor=#ff0000;" vertex="1" parent="LyGaWGMWj2QUgu-wXZLi-24">
          <mxGeometry x="42.5" y="130" width="120" height="40" as="geometry" />
        </mxCell>
        <mxCell id="LyGaWGMWj2QUgu-wXZLi-28" value="" style="edgeStyle=orthogonalEdgeStyle;html=1;verticalAlign=bottom;endArrow=open;endSize=8;strokeColor=#ff0000;rounded=0;entryX=0.5;entryY=0;entryDx=0;entryDy=0;" edge="1" parent="LyGaWGMWj2QUgu-wXZLi-24" source="LyGaWGMWj2QUgu-wXZLi-27" target="LyGaWGMWj2QUgu-wXZLi-29">
          <mxGeometry relative="1" as="geometry">
            <mxPoint x="102.5" y="230" as="targetPoint" />
          </mxGeometry>
        </mxCell>
        <mxCell id="LyGaWGMWj2QUgu-wXZLi-29" value="Enter PIN" style="rounded=1;whiteSpace=wrap;html=1;arcSize=40;fontColor=#000000;fillColor=#ffffc0;strokeColor=#ff0000;" vertex="1" parent="LyGaWGMWj2QUgu-wXZLi-24">
          <mxGeometry x="42.5" y="206" width="120" height="40" as="geometry" />
        </mxCell>
        <mxCell id="LyGaWGMWj2QUgu-wXZLi-30" value="select destination account" style="rounded=1;whiteSpace=wrap;html=1;arcSize=40;fontColor=#000000;fillColor=#ffffc0;strokeColor=#ff0000;" vertex="1" parent="LyGaWGMWj2QUgu-wXZLi-24">
          <mxGeometry x="42.5" y="300" width="120" height="40" as="geometry" />
        </mxCell>
        <mxCell id="LyGaWGMWj2QUgu-wXZLi-31" value="" style="edgeStyle=orthogonalEdgeStyle;html=1;verticalAlign=bottom;endArrow=open;endSize=8;strokeColor=#ff0000;rounded=0;entryX=0.5;entryY=0;entryDx=0;entryDy=0;" edge="1" parent="LyGaWGMWj2QUgu-wXZLi-24" target="LyGaWGMWj2QUgu-wXZLi-32">
          <mxGeometry relative="1" as="geometry">
            <mxPoint x="102.07999999999998" y="470" as="targetPoint" />
            <mxPoint x="102.07999999999998" y="340" as="sourcePoint" />
            <Array as="points" />
          </mxGeometry>
        </mxCell>
        <mxCell id="LyGaWGMWj2QUgu-wXZLi-32" value="Enter desired amount of money" style="rounded=1;whiteSpace=wrap;html=1;arcSize=40;fontColor=#000000;fillColor=#ffffc0;strokeColor=#ff0000;" vertex="1" parent="LyGaWGMWj2QUgu-wXZLi-24">
          <mxGeometry x="42.5" y="380" width="120" height="40" as="geometry" />
        </mxCell>
        <mxCell id="LyGaWGMWj2QUgu-wXZLi-33" value="" style="ellipse;html=1;shape=endState;fillColor=#000000;strokeColor=#ff0000;" vertex="1" parent="LyGaWGMWj2QUgu-wXZLi-24">
          <mxGeometry x="90" y="770" width="30" height="30" as="geometry" />
        </mxCell>
        <mxCell id="LyGaWGMWj2QUgu-wXZLi-34" value="&lt;span style=&quot;font-size: 10px;&quot;&gt;Does the user need a receipt?&lt;/span&gt;" style="rhombus;whiteSpace=wrap;html=1;fontColor=#000000;fillColor=#ffffc0;strokeColor=#ff0000;" vertex="1" parent="LyGaWGMWj2QUgu-wXZLi-24">
          <mxGeometry x="72.5" y="555" width="90" height="90" as="geometry" />
        </mxCell>
        <mxCell id="LyGaWGMWj2QUgu-wXZLi-35" value="no" style="edgeStyle=orthogonalEdgeStyle;html=1;align=left;verticalAlign=bottom;endArrow=open;endSize=8;strokeColor=#ff0000;rounded=0;entryX=1;entryY=0.5;entryDx=0;entryDy=0;exitX=1;exitY=0.5;exitDx=0;exitDy=0;" edge="1" parent="LyGaWGMWj2QUgu-wXZLi-24" source="LyGaWGMWj2QUgu-wXZLi-34" target="LyGaWGMWj2QUgu-wXZLi-33">
          <mxGeometry x="-1" relative="1" as="geometry">
            <mxPoint x="129.99999999999994" y="785.1199999999999" as="targetPoint" />
            <mxPoint x="168.68" y="600" as="sourcePoint" />
            <Array as="points">
              <mxPoint x="200" y="600" />
              <mxPoint x="200" y="785" />
            </Array>
          </mxGeometry>
        </mxCell>
        <mxCell id="LyGaWGMWj2QUgu-wXZLi-36" value="" style="edgeStyle=orthogonalEdgeStyle;html=1;verticalAlign=bottom;endArrow=open;endSize=8;strokeColor=#ff0000;rounded=0;entryX=0.5;entryY=0;entryDx=0;entryDy=0;" edge="1" parent="LyGaWGMWj2QUgu-wXZLi-8" source="LyGaWGMWj2QUgu-wXZLi-22" target="LyGaWGMWj2QUgu-wXZLi-33">
          <mxGeometry relative="1" as="geometry">
            <mxPoint x="340" y="750" as="targetPoint" />
            <Array as="points">
              <mxPoint x="340" y="740" />
              <mxPoint x="515" y="740" />
            </Array>
          </mxGeometry>
        </mxCell>
        <mxCell id="LyGaWGMWj2QUgu-wXZLi-37" value="yes" style="edgeStyle=orthogonalEdgeStyle;html=1;align=left;verticalAlign=top;endArrow=open;endSize=8;strokeColor=#ff0000;rounded=0;entryX=1.008;entryY=0.558;entryDx=0;entryDy=0;exitX=0.5;exitY=1;exitDx=0;exitDy=0;entryPerimeter=0;" edge="1" parent="LyGaWGMWj2QUgu-wXZLi-8" source="LyGaWGMWj2QUgu-wXZLi-34" target="LyGaWGMWj2QUgu-wXZLi-22">
          <mxGeometry x="-1" relative="1" as="geometry">
            <mxPoint x="397.5" y="673.5" as="targetPoint" />
            <mxPoint x="527.5" y="646" as="sourcePoint" />
            <Array as="points">
              <mxPoint x="408" y="672" />
              <mxPoint x="408" y="672" />
            </Array>
          </mxGeometry>
        </mxCell>
        <mxCell id="LyGaWGMWj2QUgu-wXZLi-38" value="" style="edgeStyle=orthogonalEdgeStyle;html=1;verticalAlign=bottom;endArrow=open;endSize=8;strokeColor=#ff0000;rounded=0;exitX=1;exitY=0.5;exitDx=0;exitDy=0;entryX=0;entryY=0.5;entryDx=0;entryDy=0;" edge="1" parent="LyGaWGMWj2QUgu-wXZLi-8" source="LyGaWGMWj2QUgu-wXZLi-17" target="LyGaWGMWj2QUgu-wXZLi-34">
          <mxGeometry relative="1" as="geometry">
            <mxPoint x="360" y="530" as="targetPoint" />
            <mxPoint x="280" y="470" as="sourcePoint" />
            <Array as="points" />
          </mxGeometry>
        </mxCell>
        <mxCell id="LyGaWGMWj2QUgu-wXZLi-61" value="Activity" style="rounded=1;whiteSpace=wrap;html=1;arcSize=40;fontColor=#000000;fillColor=#ffffc0;strokeColor=#ff0000;" vertex="1" parent="1">
          <mxGeometry x="-100" y="-1010" width="120" height="40" as="geometry" />
        </mxCell>
        <mxCell id="LyGaWGMWj2QUgu-wXZLi-63" value="Pool" style="swimlane;childLayout=stackLayout;resizeParent=1;resizeParentMax=0;startSize=20;horizontal=0;horizontalStack=1;" vertex="1" parent="1">
          <mxGeometry x="-730" y="-1570" width="260" height="480" as="geometry" />
        </mxCell>
        <mxCell id="LyGaWGMWj2QUgu-wXZLi-64" value="Lane 1" style="swimlane;startSize=20;" vertex="1" parent="LyGaWGMWj2QUgu-wXZLi-63">
          <mxGeometry x="20" width="120" height="480" as="geometry" />
        </mxCell>
        <mxCell id="LyGaWGMWj2QUgu-wXZLi-65" value="Lane 2" style="swimlane;startSize=20;" vertex="1" parent="LyGaWGMWj2QUgu-wXZLi-63">
          <mxGeometry x="140" width="120" height="480" as="geometry" />
        </mxCell>
        <mxCell id="LyGaWGMWj2QUgu-wXZLi-71" value="Activity" style="rounded=1;whiteSpace=wrap;html=1;arcSize=40;fontColor=#000000;fillColor=#ffffc0;strokeColor=#ff0000;" vertex="1" parent="1">
          <mxGeometry x="-180" y="-790" width="120" height="40" as="geometry" />
        </mxCell>
        <mxCell id="LyGaWGMWj2QUgu-wXZLi-76" value="Activity" style="rounded=1;whiteSpace=wrap;html=1;arcSize=40;fontColor=#000000;fillColor=#ffffc0;strokeColor=#ff0000;" vertex="1" parent="1">
          <mxGeometry x="-90" y="-720" width="120" height="40" as="geometry" />
        </mxCell>
      </root>
    </mxGraphModel>
  </diagram>
</mxfile>
